<svg width="21" height="20" viewBox="0 0 21 20" fill="none" xmlns="http://www.w3.org/2000/svg">
<path d="M15.753 15.253C15.9485 15.0575 15.9485 14.7405 15.753 14.545L11.51 10.303L15.7529 6.06098C15.9484 5.86553 15.9483 5.54857 15.7527 5.35323C15.5573 5.15811 15.2408 5.15822 15.0455 5.35348L10.803 9.596L6.5605 5.3535C6.36527 5.15827 6.04873 5.15827 5.8535 5.3535C5.65827 5.54873 5.65827 5.86527 5.8535 6.0605L10.096 10.303L5.85348 14.5455C5.65822 14.7408 5.65811 15.0573 5.85323 15.2527C6.04857 15.4483 6.36553 15.4484 6.56098 15.2529L10.803 11.01L15.045 15.253C15.2405 15.4485 15.5575 15.4485 15.753 15.253Z" fill="#838691"/>
</svg>
