<svg width="56" height="56" viewBox="0 0 56 56" fill="none" xmlns="http://www.w3.org/2000/svg">
<rect width="56" height="56" fill="url(#paint0_radial_12184_911)"/>
<path fill-rule="evenodd" clip-rule="evenodd" d="M34.1701 15.6953C33.3183 16.8073 32.8924 18.0104 32.8924 19.3047V34.125C32.8924 34.5078 32.8738 34.8997 32.8368 35.3008C32.7998 35.7018 32.7442 36.1029 32.6701 36.5039C33.6146 36.3216 34.4803 36.0436 35.2674 35.6699C36.0544 35.2962 36.7627 34.8177 37.3924 34.2344C38.022 33.651 38.5683 32.9629 39.0313 32.1699C39.4942 31.3769 39.8831 30.4792 40.1979 29.4766L40.809 27.5078V14.0273C37.2349 14.0273 35.022 14.5833 34.1701 15.6953ZM21.8646 15.5586H20.2812V17.0898H21.8646V15.5586ZM23.4479 17.8828H21.8646V19.4141H23.4479V17.8828ZM21.8646 19.8242H20.2812V21.3555H21.8646V19.8242ZM20.2813 22.1211H18.6979V23.6797H20.2813V22.1211ZM17.1146 14H15.5312V15.5586H17.1146V14ZM24.184 37.5977C23.6933 36.6133 23.4479 35.4557 23.4479 34.125V22.8867H21.8646V28.6289H20.2812V25.2109H18.6979V26.7422H17.1146V18.2656H15.5312V30.9531C15.5312 32.5208 15.8183 33.9792 16.3924 35.3281C16.9664 36.6771 17.7951 37.8483 18.8785 38.8418C19.9618 39.8353 21.2859 40.61 22.8507 41.166C24.4155 41.722 26.1886 42 28.1701 42L27.434 41.5215C26.9433 41.2025 26.4016 40.7148 25.809 40.0586C25.2164 39.4023 24.6748 38.582 24.184 37.5977ZM33.309 36.9961C32.0868 37.2695 30.7442 37.3789 29.2813 37.3242C28.2257 37.2695 27.2859 37.1191 26.4618 36.873C25.6377 36.627 24.9109 36.3125 24.2812 35.9297C24.7072 37.7526 25.4942 39.1152 26.6424 40.0176C27.7905 40.9199 28.4016 41.3984 28.4757 41.4531L29.4201 41.9453C31.2164 41.8359 32.8183 41.4805 34.2257 40.8789C35.6331 40.2773 36.8275 39.4889 37.809 38.5137C38.7905 37.5384 39.5359 36.4082 40.0451 35.123C40.5544 33.8379 40.809 32.4479 40.809 30.9531V29.6406C40.3831 31.026 39.8183 32.2155 39.1146 33.209C38.4109 34.2025 37.5729 35.0137 36.6007 35.6426C35.6285 36.2715 34.5313 36.7227 33.309 36.9961ZM20.2535 17.1172H18.6979V18.6484H20.2535V17.1172ZM41.6639 14C41.8119 14 41.9413 14.0528 42.0523 14.1585C42.1633 14.2642 42.2188 14.391 42.2188 14.5389C42.2188 14.6975 42.1633 14.8296 42.0523 14.9352C41.9413 15.0409 41.8119 15.0938 41.6639 15.0938C41.516 15.0938 41.3892 15.0409 41.2835 14.9352C41.1778 14.8296 41.125 14.6975 41.125 14.5389C41.125 14.391 41.1778 14.2642 41.2835 14.1585C41.3892 14.0528 41.516 14 41.6639 14ZM41.6639 15.0145C41.7908 15.0145 41.8991 14.9696 41.9889 14.8798C42.0787 14.7899 42.1236 14.6763 42.1236 14.5389C42.1236 14.4121 42.0787 14.3038 41.9889 14.214C41.8991 14.1242 41.7908 14.0793 41.6639 14.0793C41.5371 14.0793 41.4315 14.1242 41.3469 14.214C41.2624 14.3038 41.2201 14.4121 41.2201 14.5389C41.2201 14.6763 41.2624 14.7899 41.3469 14.8798C41.4315 14.9696 41.5371 15.0145 41.6639 15.0145ZM41.8779 14.531C41.9044 14.5046 41.9176 14.465 41.9176 14.4121C41.9176 14.3487 41.9017 14.3012 41.87 14.2695C41.8383 14.2378 41.7802 14.2219 41.6957 14.2219H41.4579V14.856H41.553V14.5865H41.6639L41.8383 14.856H41.9334L41.7591 14.5865C41.8119 14.5759 41.8515 14.5574 41.8779 14.531ZM41.6639 14.5072C41.7062 14.5072 41.7432 14.502 41.7749 14.4914C41.8066 14.4808 41.8225 14.4544 41.8225 14.4121C41.8225 14.3699 41.8093 14.3408 41.7828 14.325C41.7564 14.3091 41.7221 14.3012 41.6798 14.3012H41.553V14.5072H41.6639Z" fill="url(#paint1_linear_12184_911)"/>
<defs>
<radialGradient id="paint0_radial_12184_911" cx="0" cy="0" r="1" gradientUnits="userSpaceOnUse" gradientTransform="translate(28) rotate(90) scale(56)">
<stop stop-color="#006FFF"/>
<stop offset="1" stop-color="#003C9E"/>
</radialGradient>
<linearGradient id="paint1_linear_12184_911" x1="24.347" y1="57.0457" x2="43.553" y2="33.4519" gradientUnits="userSpaceOnUse">
<stop stop-color="#C2C4CE"/>
<stop offset="0.39697" stop-color="#D6D9E2"/>
<stop offset="1" stop-color="white"/>
</linearGradient>
</defs>
</svg>
